<svg xmlns="http://www.w3.org/2000/svg" viewBox="-162 340.5 285.2 112.5">
  <path fill="#4bbdc3" d="M-143.3 394.7c0-2.5.4-4.9 1.3-7.3 1.1-2.8 2.5-5.2 4.5-7.4s4.4-3.9 7.1-5.1c2.8-1.2 5.6-1.7 8.6-1.7s5.8.6 8.6 1.8c1.2.6 2.2 1.2 3.3 1.8s2 1.4 3 2.3c1.8 1.9 3.4 4 4.5 6.5 1.2 2.4 1.8 5 1.9 7.6 0 .5.1 1 .1 1.4h13.5v-.9c-.2-3.7-.9-7.3-2-10.8-1.3-3.5-3-6.7-5.2-9.7-2.8-3.7-6.3-6.6-10.3-9s-8.4-3.7-12.9-4.3c-4.6-.6-9.2-.2-13.6 1.1s-8.5 3.3-12.2 6.1v-17.7c0-1.9-.7-3.5-1.9-4.8-1.3-1.3-2.9-1.9-4.8-1.9s-3.5.7-4.8 1.9c-1.3 1.3-2 2.9-2 4.8v45.4h13.3zm43 4.1c0 2.5-.4 4.9-1.3 7.3-1.1 2.8-2.5 5.2-4.5 7.4s-4.4 3.9-7.1 5.1c-2.8 1.2-5.6 1.7-8.6 1.7s-5.8-.6-8.6-1.8c-1.2-.6-2.2-1.2-3.3-1.8-1.1-.7-2-1.4-3-2.3-1.8-1.9-3.4-4-4.5-6.5-1.2-2.4-1.8-5-1.9-7.6 0-.5-.1-1-.1-1.4h-13.6v.9c.2 3.7.9 7.3 2 10.8 1.3 3.5 3 6.7 5.2 9.7 2.8 3.7 6.3 6.6 10.3 9 4 2.3 8.4 3.7 12.9 4.3 4.6.6 9.2.2 13.6-1.1s8.5-3.3 12.2-6.1v17.8c0 1.9.7 3.5 1.9 4.8 1.3 1.3 2.9 1.9 4.8 1.9s3.5-.7 4.8-1.9c1.3-1.3 1.9-2.9 1.9-4.8v-45.5c.2.1-13.1.1-13.1.1zm30.1-33.6v12.2h6.2c1.4 0 2.7.3 4 .8 1.3.6 2.3 1.3 3.3 2.2s1.6 2 2.2 3.3c.6 1.3.8 2.6.8 4V404c0 1.4-.3 2.7-.8 4-.6 1.3-1.3 2.3-2.2 3.3s-2 1.6-3.3 2.2c-1.3.6-2.6.8-4 .8s-2.7-.3-4-.8c-1.3-.6-2.3-1.3-3.3-2.2-1-1-1.6-2-2.2-3.3s-.8-2.6-.8-4v-38.8h4.1zm12.4 22.4c0-.9-.2-1.6-.5-2.4-.3-.8-.8-1.3-1.3-1.9-.6-.6-1.3-1-1.9-1.3-.8-.3-1.5-.5-2.4-.5h-6.2V404c0 .9.2 1.6.5 2.4.3.8.8 1.3 1.3 1.9.6.6 1.3 1 1.9 1.3.8.3 1.5.5 2.4.5.9 0 1.6-.2 2.4-.5.8-.3 1.3-.8 1.9-1.3.6-.6 1-1.3 1.3-1.9.3-.8.5-1.5.5-2.4.1-.1.1-16.4.1-16.4zm8.1 0c0-1.4.3-2.7.8-4 .6-1.3 1.3-2.3 2.2-3.3 1-1 2-1.6 3.3-2.2 1.3-.6 2.6-.8 4-.8s2.7.3 4 .8c1.3.6 2.3 1.3 3.3 2.2 1 1 1.6 2 2.2 3.3.6 1.3.8 2.6.8 4v4c0 1.4-.3 2.7-.8 4-.6 1.3-1.3 2.3-2.2 3.3-1 1-2 1.6-3.3 2.2s-2.6.8-4 .8h-6.2v2c0 .9.2 1.6.5 2.4.3.8.8 1.3 1.3 1.9.6.6 1.3 1 1.9 1.3.8.3 1.5.5 2.4.5h6.2v4h-6.2c-1.4 0-2.7-.3-4-.8-1.3-.6-2.3-1.3-3.3-2.2-1-1-1.6-2-2.2-3.3-.6-1.3-.8-2.6-.8-4 .1.2.1-16.1.1-16.1zm16.3 0c0-.9-.2-1.6-.5-2.4-.3-.8-.8-1.3-1.3-1.9-.6-.6-1.3-1-1.9-1.3-.8-.3-1.5-.5-2.4-.5-.9 0-1.6.2-2.4.5-.8.3-1.3.8-1.9 1.3-.6.6-1 1.3-1.3 1.9-.3.8-.5 1.5-.5 2.4v10.2h6.2c.9 0 1.6-.2 2.4-.5s1.3-.8 1.9-1.3c.6-.6 1-1.3 1.3-1.9.3-.8.5-1.5.5-2.4-.1 0-.1-4.1-.1-4.1zm8.2 0c0-1.4.3-2.7.8-4 .6-1.3 1.3-2.3 2.2-3.3 1-1 2-1.6 3.3-2.2 1.3-.6 2.6-.8 4-.8s2.7.3 4 .8c1.3.6 2.3 1.3 3.3 2.2s1.6 2 2.2 3.3.8 2.6.8 4v4c0 1.4-.3 2.7-.8 4-.6 1.3-1.3 2.3-2.2 3.3s-2 1.6-3.3 2.2c-1.3.6-2.6.8-4 .8h-6.2v2c0 .9.2 1.6.5 2.4.3.8.8 1.3 1.3 1.9.6.6 1.3 1 1.9 1.3.8.3 1.5.5 2.4.5h6.2v4H-15c-1.4 0-2.7-.3-4-.8-1.3-.6-2.3-1.3-3.3-2.2-1-1-1.6-2-2.2-3.3-.6-1.3-.8-2.6-.8-4 .1.2.1-16.1.1-16.1zm16.4 0c0-.9-.2-1.6-.5-2.4-.3-.8-.8-1.3-1.3-1.9-.6-.6-1.3-1-1.9-1.3-.8-.3-1.5-.5-2.4-.5s-1.6.2-2.4.5-1.3.8-1.9 1.3-1 1.3-1.3 1.9c-.3.8-.5 1.5-.5 2.4v10.2h6.2c.9 0 1.6-.2 2.4-.5.8-.3 1.3-.8 1.9-1.3.6-.6 1-1.3 1.3-1.9.3-.8.5-1.5.5-2.4-.1 0-.1-4.1-.1-4.1zM9.6 381c-.9 0-1.6.2-2.4.5s-1.3.8-1.9 1.3c-.6.6-1 1.2-1.3 1.9-.3.8-.5 1.5-.5 2.3 0 1.1.4 2 1.2 2.7.8.8 1.8 1.4 3 2 1.3.7 2.5 1.3 4 1.9 1.4.7 2.7 1.3 4 2.2 1.3.9 2.2 1.9 3.1 3.2.9 1.3 1.3 2.8 1.3 4.6v.3c0 1.4-.3 2.7-.8 4-.6 1.3-1.3 2.3-2.2 3.3-1 1-2 1.6-3.3 2.2-1.3.5-2.5.8-4 .8s-2.7-.3-4-.8c-1.3-.6-2.3-1.3-3.3-2.2s-1.6-2-2.2-3.3-.8-2.6-.8-4v-.3l4-.1v.4c0 .9.2 1.6.5 2.4.3.8.8 1.3 1.3 1.9.6.6 1.3 1 1.9 1.3.8.3 1.5.5 2.4.5.8 0 1.5-.2 2.3-.5.7-.3 1.3-.7 1.9-1.2.6-.5 1-1.2 1.3-1.8.3-.7.5-1.4.6-2.2-.1-1.4-.6-2.6-1.3-3.5-.8-1-1.7-1.7-2.9-2.4s-2.3-1.3-3.7-1.9c-1.3-.6-2.6-1.3-3.8-1.9s-2.1-1.5-3-2.5c-.9-1-1.3-2.2-1.5-3.7h-.1c0-.2-.1-.4-.1-.6v-.6c0-1.4.3-2.7.8-4 .6-1.3 1.3-2.3 2.2-3.3 1-1 2-1.6 3.3-2.2 1.3-.6 2.6-.8 4-.8s2.7.3 4 .8c1.3.6 2.3 1.3 3.3 2.2 1 1 1.6 2 2.2 3.3.6 1.3.8 2.6.8 4v.5h-4v-.5c0-.9-.2-1.6-.5-2.4s-.8-1.3-1.3-1.9c-.6-.6-1.3-1-1.9-1.3-1-.4-1.7-.6-2.6-.6zM28 365.2v12.2h6.2c1.4 0 2.7.3 4 .8 1.3.6 2.3 1.3 3.3 2.2 1 1 1.6 2 2.2 3.3.6 1.3.8 2.6.8 4V404c0 1.4-.3 2.7-.8 4-.6 1.3-1.3 2.3-2.2 3.3-1 1-2 1.6-3.3 2.2-1.3.6-2.6.8-4 .8s-2.7-.3-4-.8c-1.3-.6-2.3-1.3-3.3-2.2-1-1-1.6-2-2.2-3.3s-.8-2.6-.8-4v-38.8H28zm12.3 22.4c0-.9-.2-1.6-.5-2.4-.3-.8-.8-1.3-1.3-1.9-.6-.6-1.3-1-1.9-1.3-.8-.3-1.5-.5-2.4-.5H28V404c0 .9.2 1.6.5 2.4.3.8.8 1.3 1.3 1.9.6.6 1.3 1 1.9 1.3.8.3 1.5.5 2.4.5s1.6-.2 2.4-.5c.8-.3 1.3-.8 1.9-1.3.6-.6 1-1.3 1.3-1.9.3-.8.5-1.5.5-2.4.1-.1.1-16.4.1-16.4zM69 377.4V404c0 1.4-.3 2.7-.8 4-.6 1.3-1.3 2.3-2.2 3.3-1 1-2 1.6-3.3 2.2-1.3.6-2.6.8-4 .8s-2.7-.3-4-.8c-1.3-.6-2.3-1.3-3.3-2.2-1-1-1.6-2-2.2-3.3-.6-1.3-.8-2.6-.8-4v-26.6h4l.1 26.6c0 .9.2 1.6.5 2.4.3.8.8 1.3 1.3 1.9.6.6 1.3 1 1.9 1.3.8.3 1.5.5 2.4.5s1.6-.2 2.4-.5c.8-.3 1.3-.8 1.9-1.3.6-.6 1-1.3 1.3-1.9.3-.8.5-1.5.5-2.4v-26.6H69zm14.2 3.6c-.9 0-1.6.2-2.4.5s-1.3.8-1.9 1.3c-.6.6-1 1.2-1.3 1.9-.3.8-.5 1.5-.5 2.3 0 1.1.4 2 1.2 2.7.8.8 1.8 1.4 3 2 1.3.7 2.5 1.3 4 1.9 1.4.7 2.7 1.3 4 2.2 1.3.9 2.2 1.9 3.1 3.2.8 1.3 1.3 2.8 1.3 4.6v.3c0 1.4-.3 2.7-.8 4-.6 1.3-1.3 2.3-2.2 3.3-1 1-2 1.6-3.3 2.2-1.3.5-2.5.8-4 .8s-2.7-.3-4-.8c-1.3-.6-2.3-1.3-3.3-2.2-1-1-1.6-2-2.2-3.3-.6-1.3-.8-2.6-.8-4v-.3l4-.1v.4c0 .9.2 1.6.5 2.4.3.8.8 1.3 1.3 1.9.6.6 1.3 1 1.9 1.3.8.3 1.5.5 2.4.5.8 0 1.5-.2 2.3-.5.7-.3 1.3-.7 1.9-1.2.6-.5 1-1.2 1.3-1.8.3-.7.5-1.4.6-2.2-.1-1.4-.6-2.6-1.3-3.5-.8-1-1.7-1.7-2.9-2.4s-2.3-1.3-3.7-1.9c-1.3-.6-2.6-1.3-3.8-1.9-1.2-.7-2.1-1.5-3-2.5-.9-1-1.3-2.2-1.5-3.7H73c0-.2-.1-.4-.1-.6v-.6c0-1.4.3-2.7.8-4 .6-1.3 1.3-2.3 2.2-3.3 1-1 2-1.6 3.3-2.2 1.3-.6 2.6-.8 4-.8s2.7.3 4 .8c1.3.6 2.3 1.3 3.3 2.2 1 1 1.6 2 2.2 3.3.6 1.3.8 2.6.8 4v.5h-4v-.5c0-.9-.2-1.6-.5-2.4s-.8-1.3-1.3-1.9c-.6-.6-1.3-1-1.9-1.3-.9-.4-1.7-.6-2.6-.6zm34.8-3.6v36.8c0 1.4-.3 2.7-.8 4-.6 1.3-1.3 2.3-2.2 3.3s-2 1.6-3.3 2.2c-1.3.6-2.6.8-4 .8h-6.2v-4h6.2c.9 0 1.6-.2 2.4-.5.8-.3 1.3-.8 1.9-1.3.6-.6 1-1.3 1.3-1.9.3-.8.5-1.5.5-2.4h-6.2c-1.4 0-2.7-.3-4-.8-1.3-.6-2.3-1.3-3.3-2.2-1-1-1.6-2-2.2-3.3-.6-1.3-.8-2.6-.8-4v-26.6h4V404c0 .9.2 1.6.5 2.4.3.8.8 1.3 1.3 1.9.6.6 1.3 1 1.9 1.3.8.3 1.5.5 2.4.5h6.2v-32.8h4.4v.1z"/>
</svg>
